<svg version="1" xmlns="http://www.w3.org/2000/svg" width="682.667" height="682.667" viewBox="0 0 512.000000 512.000000"><path d="M169 50.1c-17.5 1.8-31.7 10.6-42.6 26.5-3.6 5.2-14.3 20.5-27.9 39.9-2.3 3.3-13 18.6-23.8 34-10.7 15.4-19.9 28.4-20.4 29-.4.5-4.1 5.8-8 11.7-9.4 14-11.8 21.4-11.7 35.3.2 15.7 5 27.2 15.8 38 4.8 4.8 27.1 20.9 65.6 47.5.8.6 6.2 4.4 12 8.4 10.4 7.4 10.5 7.4 11 4.8l.5-2.6 13.1-.1c14-.1 16.9-.9 19.6-5.7.9-1.8 1.2-21.7 1.2-84.6 0-45.2.2-82.2.6-82.3 2.1-.4 45.4-.3 46 .1.5.3.7 39.4.6 87l-.2 86.5-2.3 7c-4.8 14.9-12.5 22.7-28.5 29l-3.9 1.5 13.4 9.3c7.4 5.1 17.1 11.8 21.6 15 4.5 3.1 8.4 5.7 8.7 5.7.4 0 .6-54.3.6-120.8V149.5h23.2l23.3.1.5 10.9c.5 10.5.6 10.8 2.1 8.5 2.6-4 8-9 13.4-12.5 9.4-6 20-8.9 33.3-8.9 2.8 0 4.9-.3 4.5-.7-.5-.4-9.1-6.5-19.3-13.6-10.2-7.1-27.3-19.1-38-26.6S252.8 92.6 252 92c-.8-.6-7.1-5-14-9.8-36.1-25.4-37.3-26.1-43.3-28.4-7.7-2.9-18.3-4.4-25.7-3.7zm40.2 19.3c5.1 2.5 11.2 8.7 14 14.4 7.1 14.6-2.7 34.9-18.2 37.7-12.7 2.3-25.4-1.7-30.7-9.6-6.7-10.1-7.5-20.7-2.4-30.7 3.4-6.8 12.2-12.7 20.4-13.8 2.3-.4 4.3-.7 4.5-.9.7-.6 9.2 1.4 12.4 2.9zM386.7 191.7c8.7 22.5 7.6 55.8-2.3 75.6-13.3 26.3-33.8 39.2-61.7 38.9-14.8-.2-28.6-5.9-38.9-16.3l-6.8-6.7V425l8.9 5.9c15.6 10.2 31.7 15.1 48.6 14.6 10.9-.3 15-1 23.5-3.6 13.1-4.2 26.4-12.3 35.2-21.6 2.5-2.8 9.4-11.7 15.2-19.9 5.7-8.2 11.4-16.3 12.6-17.9 1.2-1.7 10.4-14.9 20.6-29.5 10.2-14.6 20.3-29 22.5-32 12.4-17.3 16.1-27.5 15.5-42.4-.7-17.7-9.3-34-23-43.3-2.2-1.5-4.5-3.2-5.1-3.6-2.1-1.8-66.6-46.7-67-46.7-.2 0 .8 3 2.2 6.7zm59.2 57.2c12.8 6.6 18.7 19.8 14.8 33.2-5.8 19.7-31.8 26.2-46 11.5-11.6-12-10.5-29.8 2.5-41.5 6.7-5.9 20.4-7.4 28.7-3.2z"/><path d="M305.2 189.2c-16.7 2.6-27.5 16.2-28.1 35.6-.7 22.2 11 37.9 29.7 39.8 16.2 1.7 30.8-7.9 35.8-23.5 2.7-8.3 2.4-22.7-.6-30.6-4.2-10.9-15-19.8-25.5-21.1-2.2-.3-4.4-.6-5-.8-.5-.1-3.4.1-6.3.6z"/></svg>